<svg width="725" height="92" viewBox="0 0 725 92" fill="none" xmlns="http://www.w3.org/2000/svg">
<path d="M0.684 1.224H31.358C39.1327 1.224 45.176 3.282 49.488 7.398C53.8653 11.4487 56.054 16.9693 56.054 23.96C56.054 30.8853 53.8653 36.406 49.488 40.522C45.176 44.5727 39.1327 46.598 31.358 46.598H13.914V71H0.684V1.224ZM13.914 35.23H30.77C34.6247 35.23 37.5647 34.2827 39.59 32.388C41.6807 30.428 42.726 27.6187 42.726 23.96C42.726 20.3013 41.6807 17.492 39.59 15.532C37.5647 13.572 34.6247 12.592 30.77 12.592H13.914V35.23ZM105.065 45.716C105.065 53.6867 102.713 60.0893 98.0095 64.924C93.3055 69.7587 87.0988 72.176 79.3895 72.176C71.6802 72.176 65.4735 69.7587 60.7695 64.924C56.0001 60.1547 53.6155 53.752 53.6155 45.716C53.6155 37.68 56.0001 31.2773 60.7695 26.508C65.4735 21.6733 71.6802 19.256 79.3895 19.256C87.0988 19.256 93.3055 21.6407 98.0095 26.41C102.713 31.1793 105.065 37.6147 105.065 45.716ZM69.6875 57.77C72.0395 60.5793 75.2735 61.984 79.3895 61.984C83.5055 61.984 86.7068 60.5793 88.9935 57.77C91.3455 54.8953 92.5215 50.8773 92.5215 45.716C92.5215 40.5547 91.3455 36.5693 88.9935 33.76C86.7068 30.8853 83.5055 29.448 79.3895 29.448C75.2735 29.448 72.0395 30.8527 69.6875 33.662C67.4008 36.4713 66.2575 40.4893 66.2575 45.716C66.2575 50.9427 67.4008 54.9607 69.6875 57.77ZM134.961 19.648C136.072 19.648 137.084 19.7133 137.999 19.844V31.212H134.863C130.159 31.212 126.533 32.4207 123.985 34.838C121.502 37.19 120.261 40.6853 120.261 45.324V71H107.913V20.432H119.869V29.448C122.678 22.9147 127.709 19.648 134.961 19.648ZM166.603 20.432V29.84H156.607V57.182C156.607 58.8153 157.032 59.9587 157.881 60.612C158.796 61.2653 160.299 61.592 162.389 61.592H166.603V71C163.925 71.2613 161.769 71.392 160.135 71.392C154.647 71.392 150.629 70.3793 148.081 68.354C145.599 66.2633 144.357 62.964 144.357 58.456V29.84H136.517V20.432H144.357V5.732H156.607V20.432H166.603ZM195.981 10.73H191.669C187.422 10.73 185.299 12.7553 185.299 16.806V20.432H195.687V29.84H185.299V71H173.049V29.84H165.209V20.432H173.049V16.61C173.049 11.71 174.421 7.88799 177.165 5.144C179.909 2.33466 184.058 0.929997 189.611 0.929997C192.094 0.929997 194.217 1.028 195.981 1.224V10.73ZM244.333 45.716C244.333 53.6867 241.981 60.0893 237.277 64.924C232.573 69.7587 226.366 72.176 218.657 72.176C210.947 72.176 204.741 69.7587 200.037 64.924C195.267 60.1547 192.883 53.752 192.883 45.716C192.883 37.68 195.267 31.2773 200.037 26.508C204.741 21.6733 210.947 19.256 218.657 19.256C226.366 19.256 232.573 21.6407 237.277 26.41C241.981 31.1793 244.333 37.6147 244.333 45.716ZM208.955 57.77C211.307 60.5793 214.541 61.984 218.657 61.984C222.773 61.984 225.974 60.5793 228.261 57.77C230.613 54.8953 231.789 50.8773 231.789 45.716C231.789 40.5547 230.613 36.5693 228.261 33.76C225.974 30.8853 222.773 29.448 218.657 29.448C214.541 29.448 211.307 30.8527 208.955 33.662C206.668 36.4713 205.525 40.4893 205.525 45.716C205.525 50.9427 206.668 54.9607 208.955 57.77ZM259.528 71H247.18V1.224H259.528V71ZM276.829 13.866H264.677V2.302H276.829V13.866ZM276.927 71H264.579V20.432H276.927V71ZM331.174 45.716C331.174 53.6867 328.822 60.0893 324.118 64.924C319.414 69.7587 313.207 72.176 305.498 72.176C297.788 72.176 291.582 69.7587 286.878 64.924C282.108 60.1547 279.724 53.752 279.724 45.716C279.724 37.68 282.108 31.2773 286.878 26.508C291.582 21.6733 297.788 19.256 305.498 19.256C313.207 19.256 319.414 21.6407 324.118 26.41C328.822 31.1793 331.174 37.6147 331.174 45.716ZM295.796 57.77C298.148 60.5793 301.382 61.984 305.498 61.984C309.614 61.984 312.815 60.5793 315.102 57.77C317.454 54.8953 318.63 50.8773 318.63 45.716C318.63 40.5547 317.454 36.5693 315.102 33.76C312.815 30.8853 309.614 29.448 305.498 29.448C301.382 29.448 298.148 30.8527 295.796 33.662C293.509 36.4713 292.366 40.4893 292.366 45.716C292.366 50.9427 293.509 54.9607 295.796 57.77ZM377.319 10.73H373.007C368.761 10.73 366.637 12.7553 366.637 16.806V20.432H377.025V29.84H366.637V71H354.387V29.84H346.547V20.432H354.387V16.61C354.387 11.71 355.759 7.88799 358.503 5.144C361.247 2.33466 365.396 0.929997 370.949 0.929997C373.432 0.929997 375.555 1.028 377.319 1.224V10.73ZM425.671 45.716C425.671 53.6867 423.319 60.0893 418.615 64.924C413.911 69.7587 407.704 72.176 399.995 72.176C392.286 72.176 386.079 69.7587 381.375 64.924C376.606 60.1547 374.221 53.752 374.221 45.716C374.221 37.68 376.606 31.2773 381.375 26.508C386.079 21.6733 392.286 19.256 399.995 19.256C407.704 19.256 413.911 21.6407 418.615 26.41C423.319 31.1793 425.671 37.6147 425.671 45.716ZM390.293 57.77C392.645 60.5793 395.879 61.984 399.995 61.984C404.111 61.984 407.312 60.5793 409.599 57.77C411.951 54.8953 413.127 50.8773 413.127 45.716C413.127 40.5547 411.951 36.5693 409.599 33.76C407.312 30.8853 404.111 29.448 399.995 29.448C395.879 29.448 392.645 30.8527 390.293 33.662C388.006 36.4713 386.863 40.4893 386.863 45.716C386.863 50.9427 388.006 54.9607 390.293 57.77ZM455.566 19.648C456.677 19.648 457.69 19.7133 458.604 19.844V31.212H455.468C450.764 31.212 447.138 32.4207 444.59 34.838C442.108 37.19 440.866 40.6853 440.866 45.324V71H428.518V20.432H440.474V29.448C443.284 22.9147 448.314 19.648 455.566 19.648ZM527.173 1.224V13.082H491.109V29.546H523.939V40.914H491.109V71H477.879V1.224H527.173ZM539.764 13.866H527.612V2.302H539.764V13.866ZM539.862 71H527.514V20.432H539.862V71ZM581.368 27.39V20.432H593.324V69.334C593.324 76.194 591.136 81.584 586.758 85.504C582.446 89.424 576.305 91.384 568.334 91.384C561.278 91.384 555.725 89.816 551.674 86.68C547.689 83.544 545.5 79.232 545.108 73.744H557.26C557.848 79.1667 561.605 81.878 568.53 81.878C572.581 81.878 575.652 80.8327 577.742 78.742C579.898 76.6513 580.976 73.6133 580.976 69.628V63.258C577.318 68.2887 572.156 70.804 565.492 70.804C558.632 70.804 553.112 68.4193 548.93 63.65C544.749 59.0113 542.658 52.8047 542.658 45.03C542.658 37.19 544.749 30.9507 548.93 26.312C553.046 21.608 558.534 19.256 565.394 19.256C572.516 19.256 577.84 21.9673 581.368 27.39ZM568.236 60.612C572.352 60.612 575.554 59.24 577.84 56.496C580.127 53.752 581.27 49.93 581.27 45.03C581.27 40.13 580.127 36.308 577.84 33.564C575.554 30.82 572.352 29.448 568.236 29.448C564.251 29.448 561.082 30.8527 558.73 33.662C556.444 36.406 555.3 40.228 555.3 45.128C555.3 49.9627 556.444 53.752 558.73 56.496C561.082 59.24 564.251 60.612 568.236 60.612ZM656.113 19.256C661.667 19.256 665.979 20.8893 669.049 24.156C672.185 27.4227 673.753 31.898 673.753 37.582V71H661.405V39.542C661.405 33.1393 658.498 29.938 652.683 29.938C649.547 29.938 646.999 31.0813 645.039 33.368C643.145 35.5893 642.197 38.856 642.197 43.168V71H629.947V39.542C629.947 33.1393 627.007 29.938 621.127 29.938C618.057 29.938 615.541 31.0813 613.581 33.368C611.687 35.5893 610.739 38.856 610.739 43.168V71H598.391V20.432H610.347V27.684C613.81 22.0653 618.612 19.256 624.753 19.256C632.463 19.256 637.689 22.392 640.433 28.664C644.223 22.392 649.449 19.256 656.113 19.256ZM724.331 71H711.983C711.395 69.9547 710.937 67.8967 710.611 64.826C707.213 69.726 701.791 72.176 694.343 72.176C688.789 72.176 684.347 70.8367 681.015 68.158C677.748 65.4793 676.115 61.7553 676.115 56.986C676.115 47.774 682.583 42.5147 695.519 41.208L703.163 40.522C705.711 40.1953 707.54 39.6073 708.651 38.758C709.761 37.8433 710.317 36.504 710.317 34.74C710.317 32.584 709.598 31.016 708.161 30.036C706.789 28.9907 704.437 28.468 701.105 28.468C697.511 28.468 694.931 29.0887 693.363 30.33C691.795 31.506 690.88 33.564 690.619 36.504H678.467C679.185 25.0053 686.764 19.256 701.203 19.256C715.249 19.256 722.273 24.3193 722.273 34.446V61.396C722.273 65.8387 722.959 69.04 724.331 71ZM697.283 63.356C701.137 63.356 704.273 62.3107 706.691 60.22C709.108 58.064 710.317 54.9933 710.317 51.008V46.402C709.141 47.4473 707.213 48.1333 704.535 48.46L697.871 49.244C694.604 49.636 692.252 50.42 690.815 51.596C689.443 52.7067 688.757 54.34 688.757 56.496C688.757 58.652 689.475 60.3507 690.913 61.592C692.415 62.768 694.539 63.356 697.283 63.356Z" fill="white"/>
</svg>
