<svg width="58" height="72" viewBox="0 0 58 72" fill="none" xmlns="http://www.w3.org/2000/svg">
<path d="M0.724 13.356V0.223999H14.248V14.434C14.248 23.1887 10.2953 27.6967 2.39 27.958L0.724 28.056V21.294L2.292 21.196C5.10133 21 6.506 18.9093 6.506 14.924V13.356H0.724ZM34.8885 71.372C20.1232 71.372 12.4138 65.5573 11.7605 53.928H23.8145C24.1412 57.064 25.1538 59.2853 26.8525 60.592C28.6165 61.8987 31.3605 62.552 35.0845 62.552C41.7485 62.552 45.0805 60.5267 45.0805 56.476C45.0805 54.6467 44.3618 53.242 42.9245 52.262C41.4872 51.282 38.9065 50.4653 35.1825 49.812L29.4005 48.832C18.3592 47.0027 12.8385 41.9067 12.8385 33.544C12.8385 28.7747 14.6678 25.0507 18.3265 22.372C21.9852 19.628 27.1465 18.256 33.8105 18.256C48.2492 18.256 55.6972 23.9727 56.1545 35.406H44.4925C44.3618 32.4007 43.4145 30.2773 41.6505 29.036C39.8865 27.7293 37.2732 27.076 33.8105 27.076C27.9305 27.076 24.9905 29.036 24.9905 32.956C24.9905 34.6547 25.6438 35.994 26.9505 36.974C28.2572 37.8887 30.4132 38.6073 33.4185 39.13L39.7885 40.11C45.9298 41.2207 50.3725 42.9847 53.1165 45.402C55.9258 47.8193 57.3305 51.184 57.3305 55.496C57.3305 60.592 55.3705 64.512 51.4505 67.256C47.5305 70 42.0098 71.372 34.8885 71.372Z" fill="white"/>
</svg>
