<svg width="410" height="72" viewBox="0 0 410 72" fill="none" xmlns="http://www.w3.org/2000/svg">
<path d="M0.568 0.223999H58.584V12.082H36.24V70H22.912V12.082H0.568V0.223999ZM86.9336 18.256C92.4216 18.256 96.7336 19.8567 99.8696 23.058C103.071 26.194 104.672 30.6693 104.672 36.484V70H92.3236V38.542C92.3236 32.1393 89.1549 28.938 82.8176 28.938C79.6816 28.938 77.0029 30.0813 74.7816 32.368C72.6256 34.5893 71.5476 37.6927 71.5476 41.678V70H59.1996V0.223999H71.5476V26.194C75.4022 20.902 80.5309 18.256 86.9336 18.256ZM157.533 45.598V48.538H119.705C120.163 52.85 121.502 56.1167 123.723 58.338C126.01 60.494 129.048 61.572 132.837 61.572C138.456 61.572 142.311 59.1547 144.401 54.32H156.259C154.953 59.4813 152.209 63.5973 148.027 66.668C143.846 69.6733 138.75 71.176 132.739 71.176C125.226 71.176 119.15 68.7587 114.511 63.924C109.873 59.0893 107.553 52.6867 107.553 44.716C107.553 36.7453 109.84 30.3427 114.413 25.508C119.052 20.6733 125.095 18.256 132.543 18.256C140.187 18.256 146.263 20.7713 150.771 25.802C155.279 30.8327 157.533 37.4313 157.533 45.598ZM132.445 27.86C125.193 27.86 120.979 31.878 119.803 39.914H145.185C144.663 36.19 143.291 33.25 141.069 31.094C138.848 28.938 135.973 27.86 132.445 27.86ZM209.803 44.716C209.803 52.6867 207.451 59.0893 202.747 63.924C198.043 68.7587 191.836 71.176 184.127 71.176C176.417 71.176 170.211 68.7587 165.507 63.924C160.737 59.1547 158.353 52.752 158.353 44.716C158.353 36.68 160.737 30.2773 165.507 25.508C170.211 20.6733 176.417 18.256 184.127 18.256C191.836 18.256 198.043 20.6407 202.747 25.41C207.451 30.1793 209.803 36.6147 209.803 44.716ZM174.425 56.77C176.777 59.5793 180.011 60.984 184.127 60.984C188.243 60.984 191.444 59.5793 193.731 56.77C196.083 53.8953 197.259 49.8773 197.259 44.716C197.259 39.5547 196.083 35.5693 193.731 32.76C191.444 29.8853 188.243 28.448 184.127 28.448C180.011 28.448 176.777 29.8527 174.425 32.662C172.138 35.4713 170.995 39.4893 170.995 44.716C170.995 49.9427 172.138 53.9607 174.425 56.77ZM278.88 0.223999V12.082H242.816V28.546H275.646V39.914H242.816V70H229.586V0.223999H278.88ZM328.513 44.716C328.513 52.6867 326.161 59.0893 321.457 63.924C316.753 68.7587 310.546 71.176 302.837 71.176C295.127 71.176 288.921 68.7587 284.217 63.924C279.447 59.1547 277.063 52.752 277.063 44.716C277.063 36.68 279.447 30.2773 284.217 25.508C288.921 20.6733 295.127 18.256 302.837 18.256C310.546 18.256 316.753 20.6407 321.457 25.41C326.161 30.1793 328.513 36.6147 328.513 44.716ZM293.135 56.77C295.487 59.5793 298.721 60.984 302.837 60.984C306.953 60.984 310.154 59.5793 312.441 56.77C314.793 53.8953 315.969 49.8773 315.969 44.716C315.969 39.5547 314.793 35.5693 312.441 32.76C310.154 29.8853 306.953 28.448 302.837 28.448C298.721 28.448 295.487 29.8527 293.135 32.662C290.848 35.4713 289.705 39.4893 289.705 44.716C289.705 49.9427 290.848 53.9607 293.135 56.77ZM358.408 18.648C359.519 18.648 360.531 18.7133 361.446 18.844V30.212H358.31C353.606 30.212 349.98 31.4207 347.432 33.838C344.949 36.19 343.708 39.6853 343.708 44.324V70H331.36V19.432H343.316V28.448C346.125 21.9147 351.156 18.648 358.408 18.648ZM396.977 25.998V0.223999H409.325V70H397.369V62.944C393.645 68.432 388.321 71.176 381.395 71.176C374.405 71.176 368.884 68.7587 364.833 63.924C360.717 59.0893 358.659 52.6867 358.659 44.716C358.659 36.6147 360.717 30.1793 364.833 25.41C368.819 20.6407 374.339 18.256 381.395 18.256C388.19 18.256 393.384 20.8367 396.977 25.998ZM371.301 45.108C371.301 50.3347 372.445 54.2873 374.731 56.966C377.018 59.6447 380.187 60.984 384.237 60.984C388.288 60.984 391.489 59.5793 393.841 56.77C396.128 53.9607 397.271 49.9427 397.271 44.716C397.271 39.4893 396.128 35.4713 393.841 32.662C391.555 29.8527 388.353 28.448 384.237 28.448C380.252 28.448 377.083 29.918 374.731 32.858C372.445 35.798 371.301 39.8813 371.301 45.108Z" fill="white"/>
</svg>
